<mxfile host="app.diagrams.net" agent="Mozilla/5.0 (Windows NT 10.0; Win64; x64) AppleWebKit/537.36 (KHTML, like Gecko) Chrome/131.0.0.0 Safari/537.36" version="26.0.3">
  <diagram name="第 1 页" id="jT_j3OitPzXzcKeLbWfz">
    <mxGraphModel grid="1" page="1" gridSize="10" guides="1" tooltips="1" connect="1" arrows="1" fold="1" pageScale="1" pageWidth="827" pageHeight="1169" math="0" shadow="0">
      <root>
        <mxCell id="0" />
        <mxCell id="1" parent="0" />
        <mxCell id="yVqBrIhcedX-Zo0UvEzK-28" value="" style="rounded=0;whiteSpace=wrap;html=1;" vertex="1" parent="1">
          <mxGeometry y="160" width="460" height="330" as="geometry" />
        </mxCell>
        <mxCell id="yVqBrIhcedX-Zo0UvEzK-1" value="業主" style="shape=umlActor;verticalLabelPosition=bottom;verticalAlign=top;html=1;outlineConnect=0;" vertex="1" parent="1">
          <mxGeometry x="30" y="290" width="30" height="60" as="geometry" />
        </mxCell>
        <mxCell id="yVqBrIhcedX-Zo0UvEzK-5" value="" style="rounded=1;whiteSpace=wrap;html=1;" vertex="1" parent="1">
          <mxGeometry x="90" y="190" width="240" height="270" as="geometry" />
        </mxCell>
        <mxCell id="yVqBrIhcedX-Zo0UvEzK-6" value="" style="ellipse;whiteSpace=wrap;html=1;" vertex="1" parent="1">
          <mxGeometry x="150" y="360" width="120" height="80" as="geometry" />
        </mxCell>
        <mxCell id="yVqBrIhcedX-Zo0UvEzK-9" value="" style="endArrow=classic;html=1;rounded=0;exitX=1;exitY=0.3333333333333333;exitDx=0;exitDy=0;exitPerimeter=0;" edge="1" parent="1" source="yVqBrIhcedX-Zo0UvEzK-1">
          <mxGeometry width="50" height="50" relative="1" as="geometry">
            <mxPoint x="150" y="540" as="sourcePoint" />
            <mxPoint x="140" y="300" as="targetPoint" />
          </mxGeometry>
        </mxCell>
        <mxCell id="yVqBrIhcedX-Zo0UvEzK-10" value="" style="endArrow=classic;html=1;rounded=0;exitX=1;exitY=0.3333333333333333;exitDx=0;exitDy=0;exitPerimeter=0;" edge="1" parent="1" source="yVqBrIhcedX-Zo0UvEzK-1">
          <mxGeometry width="50" height="50" relative="1" as="geometry">
            <mxPoint x="100" y="440" as="sourcePoint" />
            <mxPoint x="150" y="390" as="targetPoint" />
          </mxGeometry>
        </mxCell>
        <mxCell id="yVqBrIhcedX-Zo0UvEzK-12" value="投訴" style="text;html=1;align=center;verticalAlign=middle;whiteSpace=wrap;rounded=0;" vertex="1" parent="1">
          <mxGeometry x="180" y="385" width="60" height="30" as="geometry" />
        </mxCell>
        <mxCell id="yVqBrIhcedX-Zo0UvEzK-13" value="" style="verticalLabelPosition=bottom;verticalAlign=top;html=1;shape=mxgraph.basic.x;fillColor=#fa6800;strokeColor=#C73500;fontColor=#000000;" vertex="1" parent="1">
          <mxGeometry x="140" y="410" width="40" height="40" as="geometry" />
        </mxCell>
        <mxCell id="yVqBrIhcedX-Zo0UvEzK-14" value="網訊公司" style="shape=umlActor;verticalLabelPosition=bottom;verticalAlign=top;html=1;outlineConnect=0;" vertex="1" parent="1">
          <mxGeometry x="390" y="230" width="30" height="60" as="geometry" />
        </mxCell>
        <mxCell id="yVqBrIhcedX-Zo0UvEzK-15" value="充電桩管理中心" style="shape=umlActor;verticalLabelPosition=bottom;verticalAlign=top;html=1;outlineConnect=0;" vertex="1" parent="1">
          <mxGeometry x="390" y="360" width="30" height="60" as="geometry" />
        </mxCell>
        <mxCell id="yVqBrIhcedX-Zo0UvEzK-16" value="" style="endArrow=classic;html=1;rounded=0;exitX=1;exitY=0.5;exitDx=0;exitDy=0;" edge="1" parent="1" source="yVqBrIhcedX-Zo0UvEzK-4">
          <mxGeometry width="50" height="50" relative="1" as="geometry">
            <mxPoint x="320" y="310" as="sourcePoint" />
            <mxPoint x="370" y="260" as="targetPoint" />
          </mxGeometry>
        </mxCell>
        <mxCell id="yVqBrIhcedX-Zo0UvEzK-17" value="" style="endArrow=classic;html=1;rounded=0;exitX=1;exitY=0.5;exitDx=0;exitDy=0;" edge="1" parent="1" source="yVqBrIhcedX-Zo0UvEzK-6">
          <mxGeometry width="50" height="50" relative="1" as="geometry">
            <mxPoint x="330" y="440" as="sourcePoint" />
            <mxPoint x="380" y="390" as="targetPoint" />
          </mxGeometry>
        </mxCell>
        <mxCell id="yVqBrIhcedX-Zo0UvEzK-19" value="" style="endArrow=classic;html=1;rounded=0;exitX=0.952;exitY=0.639;exitDx=0;exitDy=0;exitPerimeter=0;" edge="1" parent="1" source="yVqBrIhcedX-Zo0UvEzK-4">
          <mxGeometry width="50" height="50" relative="1" as="geometry">
            <mxPoint x="290" y="320.0000000000001" as="sourcePoint" />
            <mxPoint x="370" y="380" as="targetPoint" />
          </mxGeometry>
        </mxCell>
        <mxCell id="yVqBrIhcedX-Zo0UvEzK-21" value="" style="endArrow=classic;html=1;rounded=0;exitX=1;exitY=0.461;exitDx=0;exitDy=0;exitPerimeter=0;" edge="1" parent="1" source="yVqBrIhcedX-Zo0UvEzK-6">
          <mxGeometry width="50" height="50" relative="1" as="geometry">
            <mxPoint x="320" y="330" as="sourcePoint" />
            <mxPoint x="370" y="280" as="targetPoint" />
          </mxGeometry>
        </mxCell>
        <mxCell id="yVqBrIhcedX-Zo0UvEzK-26" value="碧桂園物業管理公司充電桩運營中心" style="text;html=1;align=center;verticalAlign=middle;whiteSpace=wrap;rounded=0;fontSize=10;" vertex="1" parent="1">
          <mxGeometry x="120" y="200" width="180" height="30" as="geometry" />
        </mxCell>
        <mxCell id="yVqBrIhcedX-Zo0UvEzK-27" value="" style="group" connectable="0" vertex="1" parent="1">
          <mxGeometry x="150" y="250" width="120" height="80" as="geometry" />
        </mxCell>
        <mxCell id="yVqBrIhcedX-Zo0UvEzK-4" value="" style="ellipse;whiteSpace=wrap;html=1;" vertex="1" parent="yVqBrIhcedX-Zo0UvEzK-27">
          <mxGeometry width="120" height="80" as="geometry" />
        </mxCell>
        <mxCell id="yVqBrIhcedX-Zo0UvEzK-11" value="充電" style="text;html=1;align=center;verticalAlign=middle;whiteSpace=wrap;rounded=0;" vertex="1" parent="yVqBrIhcedX-Zo0UvEzK-27">
          <mxGeometry x="30" y="25" width="60" height="30" as="geometry" />
        </mxCell>
        <mxCell id="yVqBrIhcedX-Zo0UvEzK-29" value="" style="rounded=0;whiteSpace=wrap;html=1;" vertex="1" parent="1">
          <mxGeometry x="470" width="460" height="330" as="geometry" />
        </mxCell>
        <mxCell id="yVqBrIhcedX-Zo0UvEzK-30" value="業主" style="shape=umlActor;verticalLabelPosition=bottom;verticalAlign=top;html=1;outlineConnect=0;" vertex="1" parent="1">
          <mxGeometry x="500" y="130" width="30" height="60" as="geometry" />
        </mxCell>
        <mxCell id="yVqBrIhcedX-Zo0UvEzK-31" value="" style="rounded=1;whiteSpace=wrap;html=1;" vertex="1" parent="1">
          <mxGeometry x="560" y="30" width="240" height="270" as="geometry" />
        </mxCell>
        <mxCell id="yVqBrIhcedX-Zo0UvEzK-37" value="網訊公司" style="shape=umlActor;verticalLabelPosition=bottom;verticalAlign=top;html=1;outlineConnect=0;" vertex="1" parent="1">
          <mxGeometry x="860" y="70" width="30" height="60" as="geometry" />
        </mxCell>
        <mxCell id="yVqBrIhcedX-Zo0UvEzK-38" value="支付公司" style="shape=umlActor;verticalLabelPosition=bottom;verticalAlign=top;html=1;outlineConnect=0;" vertex="1" parent="1">
          <mxGeometry x="860" y="200" width="30" height="60" as="geometry" />
        </mxCell>
        <mxCell id="yVqBrIhcedX-Zo0UvEzK-39" value="" style="endArrow=classic;html=1;rounded=0;exitX=1;exitY=0.5;exitDx=0;exitDy=0;" edge="1" parent="1" source="yVqBrIhcedX-Zo0UvEzK-45">
          <mxGeometry width="50" height="50" relative="1" as="geometry">
            <mxPoint x="790" y="150" as="sourcePoint" />
            <mxPoint x="840" y="100" as="targetPoint" />
          </mxGeometry>
        </mxCell>
        <mxCell id="yVqBrIhcedX-Zo0UvEzK-41" value="" style="endArrow=classic;html=1;rounded=0;exitX=0.952;exitY=0.639;exitDx=0;exitDy=0;exitPerimeter=0;" edge="1" parent="1" source="yVqBrIhcedX-Zo0UvEzK-45">
          <mxGeometry width="50" height="50" relative="1" as="geometry">
            <mxPoint x="760" y="160.0000000000001" as="sourcePoint" />
            <mxPoint x="840" y="220" as="targetPoint" />
          </mxGeometry>
        </mxCell>
        <mxCell id="yVqBrIhcedX-Zo0UvEzK-43" value="兩輪電動車充電桩運營中心" style="text;html=1;align=center;verticalAlign=middle;whiteSpace=wrap;rounded=0;fontSize=10;" vertex="1" parent="1">
          <mxGeometry x="590" y="40" width="180" height="30" as="geometry" />
        </mxCell>
        <mxCell id="yVqBrIhcedX-Zo0UvEzK-44" value="" style="group" connectable="0" vertex="1" parent="1">
          <mxGeometry x="620" y="120" width="135" height="100" as="geometry" />
        </mxCell>
        <mxCell id="yVqBrIhcedX-Zo0UvEzK-45" value="" style="ellipse;whiteSpace=wrap;html=1;" vertex="1" parent="yVqBrIhcedX-Zo0UvEzK-44">
          <mxGeometry width="120" height="80" as="geometry" />
        </mxCell>
        <mxCell id="yVqBrIhcedX-Zo0UvEzK-46" value="充電" style="text;html=1;align=center;verticalAlign=middle;whiteSpace=wrap;rounded=0;" vertex="1" parent="yVqBrIhcedX-Zo0UvEzK-44">
          <mxGeometry x="30" y="25" width="60" height="30" as="geometry" />
        </mxCell>
        <mxCell id="yVqBrIhcedX-Zo0UvEzK-47" value="" style="verticalLabelPosition=bottom;verticalAlign=top;html=1;shape=mxgraph.basic.tick;fillColor=#fa6800;fontColor=#000000;strokeColor=#C73500;" vertex="1" parent="yVqBrIhcedX-Zo0UvEzK-44">
          <mxGeometry x="100" y="50" width="35" height="40" as="geometry" />
        </mxCell>
        <mxCell id="yVqBrIhcedX-Zo0UvEzK-48" value="" style="endArrow=classic;html=1;rounded=0;entryX=0;entryY=0.5;entryDx=0;entryDy=0;" edge="1" parent="1" target="yVqBrIhcedX-Zo0UvEzK-45">
          <mxGeometry width="50" height="50" relative="1" as="geometry">
            <mxPoint x="530" y="164.2814285714284" as="sourcePoint" />
            <mxPoint x="690" y="175.71" as="targetPoint" />
          </mxGeometry>
        </mxCell>
        <mxCell id="yVqBrIhcedX-Zo0UvEzK-49" value="" style="rounded=0;whiteSpace=wrap;html=1;" vertex="1" parent="1">
          <mxGeometry x="470" y="340" width="460" height="330" as="geometry" />
        </mxCell>
        <mxCell id="yVqBrIhcedX-Zo0UvEzK-50" value="業主" style="shape=umlActor;verticalLabelPosition=bottom;verticalAlign=top;html=1;outlineConnect=0;" vertex="1" parent="1">
          <mxGeometry x="500" y="470" width="30" height="60" as="geometry" />
        </mxCell>
        <mxCell id="yVqBrIhcedX-Zo0UvEzK-51" value="" style="rounded=1;whiteSpace=wrap;html=1;" vertex="1" parent="1">
          <mxGeometry x="560" y="370" width="240" height="270" as="geometry" />
        </mxCell>
        <mxCell id="yVqBrIhcedX-Zo0UvEzK-52" value="網訊公司" style="shape=umlActor;verticalLabelPosition=bottom;verticalAlign=top;html=1;outlineConnect=0;" vertex="1" parent="1">
          <mxGeometry x="860" y="410" width="30" height="60" as="geometry" />
        </mxCell>
        <mxCell id="yVqBrIhcedX-Zo0UvEzK-53" value="支付公司" style="shape=umlActor;verticalLabelPosition=bottom;verticalAlign=top;html=1;outlineConnect=0;" vertex="1" parent="1">
          <mxGeometry x="860" y="540" width="30" height="60" as="geometry" />
        </mxCell>
        <mxCell id="yVqBrIhcedX-Zo0UvEzK-54" value="" style="endArrow=classic;html=1;rounded=0;exitX=1;exitY=0.5;exitDx=0;exitDy=0;" edge="1" parent="1" source="yVqBrIhcedX-Zo0UvEzK-58">
          <mxGeometry width="50" height="50" relative="1" as="geometry">
            <mxPoint x="790" y="490" as="sourcePoint" />
            <mxPoint x="840" y="440" as="targetPoint" />
          </mxGeometry>
        </mxCell>
        <mxCell id="yVqBrIhcedX-Zo0UvEzK-55" value="" style="endArrow=classic;html=1;rounded=0;exitX=0.952;exitY=0.639;exitDx=0;exitDy=0;exitPerimeter=0;" edge="1" parent="1" source="yVqBrIhcedX-Zo0UvEzK-58">
          <mxGeometry width="50" height="50" relative="1" as="geometry">
            <mxPoint x="760" y="500.0000000000001" as="sourcePoint" />
            <mxPoint x="840" y="560" as="targetPoint" />
          </mxGeometry>
        </mxCell>
        <mxCell id="yVqBrIhcedX-Zo0UvEzK-56" value="兩輪電動車充電桩運營中心 --- 客服部&amp;nbsp;" style="text;html=1;align=center;verticalAlign=middle;whiteSpace=wrap;rounded=0;fontSize=10;" vertex="1" parent="1">
          <mxGeometry x="590" y="380" width="180" height="30" as="geometry" />
        </mxCell>
        <mxCell id="yVqBrIhcedX-Zo0UvEzK-57" value="" style="group" connectable="0" vertex="1" parent="1">
          <mxGeometry x="620" y="460" width="135" height="100" as="geometry" />
        </mxCell>
        <mxCell id="yVqBrIhcedX-Zo0UvEzK-58" value="" style="ellipse;whiteSpace=wrap;html=1;" vertex="1" parent="yVqBrIhcedX-Zo0UvEzK-57">
          <mxGeometry width="120" height="80" as="geometry" />
        </mxCell>
        <mxCell id="yVqBrIhcedX-Zo0UvEzK-59" value="投訴" style="text;html=1;align=center;verticalAlign=middle;whiteSpace=wrap;rounded=0;" vertex="1" parent="yVqBrIhcedX-Zo0UvEzK-57">
          <mxGeometry x="30" y="25" width="60" height="30" as="geometry" />
        </mxCell>
        <mxCell id="yVqBrIhcedX-Zo0UvEzK-60" value="" style="verticalLabelPosition=bottom;verticalAlign=top;html=1;shape=mxgraph.basic.tick;fillColor=#fa6800;fontColor=#000000;strokeColor=#C73500;" vertex="1" parent="yVqBrIhcedX-Zo0UvEzK-57">
          <mxGeometry x="100" y="50" width="35" height="40" as="geometry" />
        </mxCell>
        <mxCell id="yVqBrIhcedX-Zo0UvEzK-61" value="" style="endArrow=classic;html=1;rounded=0;entryX=0;entryY=0.5;entryDx=0;entryDy=0;" edge="1" parent="1" target="yVqBrIhcedX-Zo0UvEzK-58">
          <mxGeometry width="50" height="50" relative="1" as="geometry">
            <mxPoint x="530" y="504.28142857142836" as="sourcePoint" />
            <mxPoint x="690" y="515.71" as="targetPoint" />
          </mxGeometry>
        </mxCell>
      </root>
    </mxGraphModel>
  </diagram>
</mxfile>
